<svg xmlns="http://www.w3.org/2000/svg" data-name="Layer 1" viewBox="0 0 100 125" x="0px" y="0px"><path d="M94.608,46.418,81.672,21.407A3.52,3.52,0,0,0,76.936,19.9l-7.229,3.739a3.516,3.516,0,0,0-1.535,4.674l-.892.3a5.949,5.949,0,0,1-2.15.316l-8.515-.236a8.532,8.532,0,0,0-6.088,2.221l-3.465,3.084L33.611,28.955a3.516,3.516,0,0,0-1.158-4.69L25.6,19.874a3.519,3.519,0,0,0-4.855,1.063L5.553,44.645A3.52,3.52,0,0,0,6.616,49.5l6.853,4.391a3.516,3.516,0,0,0,4.65-.778l3.192,4-1.6,2.489a5.327,5.327,0,0,0,1.61,7.35,5.27,5.27,0,0,0,2.852.839,5.172,5.172,0,0,0,.62-.038,5.342,5.342,0,0,0,.09,1.761A5.3,5.3,0,0,0,31.055,73.6a5.369,5.369,0,0,0,.124,1.179,5.3,5.3,0,0,0,5.174,4.181,5.409,5.409,0,0,0,1.155-.125,5.3,5.3,0,0,0,2.553-1.36,5.311,5.311,0,0,0,4.861,3.2,5.411,5.411,0,0,0,1.155-.126,5.278,5.278,0,0,0,3.342-2.322l.6-.929,3.727,2.4a5.273,5.273,0,0,0,2.861.843,5.4,5.4,0,0,0,1.154-.125,5.32,5.32,0,0,0,4.156-5.868,5.339,5.339,0,0,0,5.039-2.428,5.272,5.272,0,0,0,.825-3.139,5.333,5.333,0,0,0,6.7-5.413,5.337,5.337,0,0,0,5.268-8.8l1.48-1.218a3.518,3.518,0,0,0,3.034,1.734,3.48,3.48,0,0,0,1.608-.393L93.1,51.155a3.521,3.521,0,0,0,1.507-4.737ZM48.142,36.378l.039-.034,4.008-3.568a6.029,6.029,0,0,1,4.356-1.589l8.515.236a8.426,8.426,0,0,0,3-.442l1.266-.419L80.05,51.286l-2.377,1.956L64.7,44.929A8.423,8.423,0,0,0,62.457,43.9c-2.236-.663-3.729-2.638-4.1-5.418a1.249,1.249,0,0,0-1.8-.953,51.011,51.011,0,0,0-7.673,6.29,4.105,4.105,0,0,1-6.532-2.293ZM14.817,51.787,7.965,47.4a1.016,1.016,0,0,1-.307-1.4L22.85,22.286a1.007,1.007,0,0,1,.638-.441,1.057,1.057,0,0,1,.223-.024,1,1,0,0,1,.541.158L31.1,26.37a1.02,1.02,0,0,1,.307,1.4l-.734,1.146,0,.006L17.155,50.02a1.25,1.25,0,0,0-.361.562l-.575.9A1.016,1.016,0,0,1,14.817,51.787Zm7.856,13.059a2.824,2.824,0,0,1-.853-3.9l3.907-6.1a2.821,2.821,0,0,1,4.75,3.043l-3.908,6.1A2.823,2.823,0,0,1,22.673,64.846Zm5.885,5.905a2.831,2.831,0,0,1-.853-3.9l6.409-10a2.8,2.8,0,0,1,1.772-1.228,2.867,2.867,0,0,1,.615-.067A2.822,2.822,0,0,1,38.863,59.9L36.681,63.3l-4.228,6.6A2.822,2.822,0,0,1,28.558,70.751ZM36.973,76.4A2.815,2.815,0,0,1,34,72.125l.56-.874,0,0L38.433,65.2l3.254-5.077a2.8,2.8,0,0,1,1.773-1.229,2.917,2.917,0,0,1,.615-.067,2.823,2.823,0,0,1,2.361,4.339l-3.03,4.728-2.945,4.6h0l-1.714,2.675A2.8,2.8,0,0,1,36.973,76.4Zm8.569,1.716a2.82,2.82,0,0,1-2.977-4.271l2.946-4.6.595-.929a2.821,2.821,0,1,1,4.75,3.044l-3.541,5.526A2.8,2.8,0,0,1,45.542,78.112ZM78.236,59.941a2.839,2.839,0,0,1-3.918.857l-2.284-1.464h0l-7.468-4.786a1.25,1.25,0,1,0-1.349,2.1l7.463,4.782,0,0,.008.006a2.836,2.836,0,0,1-3.068,4.77l-2.281-1.461-5.053-3.31a1.25,1.25,0,0,0-1.37,2.091l5.056,3.312.005,0a2.836,2.836,0,1,1-3.052,4.781l-1.424-.913,0,0-2.757-1.767A1.25,1.25,0,1,0,55.4,71.053l2.757,1.766A2.836,2.836,0,0,1,55.094,77.6l-3.73-2.4,1.6-2.492a5.316,5.316,0,0,0-4.421-8.187l0,0a5.32,5.32,0,0,0-6.936-7.586,5.316,5.316,0,0,0-8.59-2.583A5.262,5.262,0,0,0,30.972,51.9,5.325,5.325,0,0,0,23.623,53.5l-.888,1.385-3.179-3.982L32.24,31.112l12.711,4.76-4.765,4.242a1.249,1.249,0,0,0-.415,1.039,6.6,6.6,0,0,0,10.72,4.587c.027-.022.053-.044.078-.068A68.319,68.319,0,0,1,56.3,40.737,8.059,8.059,0,0,0,61.746,46.3a5.937,5.937,0,0,1,1.6.734l14.028,8.989A2.839,2.839,0,0,1,78.236,59.941Zm14.215-11.6a1.007,1.007,0,0,1-.5.594h0l-7.229,3.739a1.017,1.017,0,0,1-1.368-.435l-.625-1.21,0,0L71.219,28.77a1.315,1.315,0,0,0-.036-.137,1.252,1.252,0,0,0-.271-.456l-.491-.95a1.017,1.017,0,0,1,.435-1.368l7.229-3.738a.993.993,0,0,1,.46-.113,1.029,1.029,0,0,1,.313.05,1,1,0,0,1,.594.5L92.388,47.567A1.007,1.007,0,0,1,92.451,48.34Z"/></svg>